HIERARCHY
ROOT root
{
	OFFSET	0	13.1	24.9
	CHANNELS 6  Xposition Yposition Zposition Xrotation Yrotation Zrotation
	JOINT spine_1
	{
		OFFSET	0	9.99999	0
		CHANNELS 3  Xrotation Yrotation Zrotation
		JOINT spine_2
		{
			OFFSET	0	112	-10
			CHANNELS 3  Xrotation Yrotation Zrotation
			JOINT spine_3
			{
				OFFSET	0	206.5	19.3
				CHANNELS 3  Xrotation Yrotation Zrotation
				JOINT spine_4
				{
					OFFSET	0	110.4	14.6
					CHANNELS 3  Xrotation Yrotation Zrotation
					JOINT neck_1
					{
						OFFSET	0	71.8	-50.3
						CHANNELS 3  Xrotation Yrotation Zrotation
						JOINT neck_2
						{
							OFFSET	0	86.2	-25.8
							CHANNELS 3  Xrotation Yrotation Zrotation
							JOINT head_ee
							{
								OFFSET	0	179.8	-8.7
								CHANNELS 3  Xrotation Yrotation Zrotation
								End Site
								{
									OFFSET	1	0	0
								}
							}
						}
					}
					JOINT left_clavicle
					{
						OFFSET	-43.2	22.4	-70.8
						CHANNELS 3  Xrotation Yrotation Zrotation
						JOINT left_shoulder
						{
							OFFSET	-93.9	-5.79999	48.7
							CHANNELS 3  Xrotation Yrotation Zrotation
							JOINT left_elbow
							{
								OFFSET	-291.4	-30.8	15.2
								CHANNELS 3  Xrotation Yrotation Zrotation
								JOINT left_lowarm_twist
								{
									OFFSET	-110.7	-3.89999	13.6
									CHANNELS 3  Xrotation Yrotation Zrotation
									JOINT left_hand
									{
										OFFSET	-110.7	-3.89999	13.6
										CHANNELS 3  Xrotation Yrotation Zrotation
										JOINT left_ee
										{
											OFFSET	-80.8	-5.10001	12.1
											CHANNELS 3  Xrotation Yrotation Zrotation
											End Site
											{
												OFFSET	1	0	0
											}
										}
									}
								}
							}
						}
					}
					JOINT right_clavicle
					{
						OFFSET	43.2	22.4	-70.8
						CHANNELS 3  Xrotation Yrotation Zrotation
						JOINT right_shoulder
						{
							OFFSET	93.9	-5.79999	48.7
							CHANNELS 3  Xrotation Yrotation Zrotation
							JOINT right_elbow
							{
								OFFSET	291.4	-30.8	15.2
								CHANNELS 3  Xrotation Yrotation Zrotation
								JOINT right_lowarm_twist
								{
									OFFSET	110.7	-3.89999	13.6
									CHANNELS 3  Xrotation Yrotation Zrotation
									JOINT right_hand
									{
										OFFSET	110.7	-3.89999	13.6
										CHANNELS 3  Xrotation Yrotation Zrotation
										JOINT right_ee
										{
											OFFSET	80.8	-5.10001	12.1
											CHANNELS 3  Xrotation Yrotation Zrotation
											End Site
											{
												OFFSET	1	0	0
											}
										}
									}
								}
							}
						}
					}
				}
			}
		}
	}
	JOINT left_hip
	{
		OFFSET	-82.8	-127.5	0.300001
		CHANNELS 3  Xrotation Yrotation Zrotation
		JOINT left_knee
		{
			OFFSET	-28.2	-396.7	2.2
			CHANNELS 3  Xrotation Yrotation Zrotation
			JOINT left_ankle
			{
				OFFSET	-11.7	-411.3	35.4
				CHANNELS 3  Xrotation Yrotation Zrotation
				JOINT left_toes
				{
					OFFSET	0	-60	-88.6
					CHANNELS 3  Xrotation Yrotation Zrotation
					JOINT left_foot_ee
					{
						OFFSET	-22.5	-16.5	-42.2
						CHANNELS 3  Xrotation Yrotation Zrotation
						End Site
						{
							OFFSET	1	0	0
						}
					}
				}
			}
		}
	}
	JOINT right_hip
	{
		OFFSET	82.8	-127.5	0.300001
		CHANNELS 3  Xrotation Yrotation Zrotation
		JOINT right_knee
		{
			OFFSET	28.2	-396.7	2.2
			CHANNELS 3  Xrotation Yrotation Zrotation
			JOINT right_ankle
			{
				OFFSET	11.7	-411.3	35.4
				CHANNELS 3  Xrotation Yrotation Zrotation
				JOINT right_toes
				{
					OFFSET	0	-60	-88.6
					CHANNELS 3  Xrotation Yrotation Zrotation
					JOINT right_foot_ee
					{
						OFFSET	22.5	-16.5	-42.2
						CHANNELS 3  Xrotation Yrotation Zrotation
						End Site
						{
							OFFSET	1	0	0
						}
					}
				}
			}
		}
	}
}
MOTION
Frames: 12
Frame Time: 0.02
1735.54 723.998 -429.484 162.05 -66.4045 163.365 -2.72421 -0.120254 -0.894747 -2.72377 -0.0630774 -0.900585 -2.72223 0.169927 -0.886656 -2.72333 0.0277694 -0.902364 -11.1193 6.46563 1.28384 -11.1721 11.3803 2.9734 -0.0 0.0 -0.0 -1.05297 14.4062 -0.00624914 8.54604 -9.76007 78.2954 1.74861 -40.8959 0.652013 1.79694 0.0598382 -0.221698 0.121024 15.8784 7.2357 -0.0 0.0 -0.0 3.33273 14.9842 -5.30118 -8.70899 16.9852 -67.8143 0.606535 16.7235 -0.0891525 51.9798 1.11416 6.32105 0.811317 3.0513 -4.1665 0.0 0.0 0.0 -5.07181 39.9656 -7.79055 2.42656 -0.107505 -0.356798 12.9306 12.6393 -1.82536 1.23001 -0.0 -0.0 -0.0 0.0 -0.0 7.90157 25.6541 -10.9529 -26.1097 -0.173307 -3.9685 36.2931 6.70366 4.62463 -14.8207 0.0 0.0 0.0 0.0 0.0 
1738.53 726.506 -430.227 162.375 -66.3522 163.879 -2.69374 -0.111843 -0.82635 -2.69336 -0.0590352 -0.831791 -2.69204 0.155763 -0.819207 -2.69297 0.0244342 -0.833525 -11.3724 6.45918 1.20125 -11.4298 11.4383 2.91688 -0.0 0.0 -0.0 -1.16747 14.3736 -0.196345 8.749 -10.065 78.6147 1.75287 -40.9648 0.654801 1.87819 0.0623794 -0.231766 0.200341 15.5309 7.59532 -0.0 0.0 -0.0 3.32868 14.463 -5.3382 -9.14949 16.7239 -67.5915 0.593879 16.3935 -0.0855455 52.1703 1.12853 6.34078 0.737617 3.05951 -3.6665 0.0 0.0 0.0 -5.31602 40.0451 -7.80489 2.38485 -0.105529 -0.350703 12.7319 12.6257 -1.79859 1.18223 -0.0 -0.0 -0.0 0.0 -0.0 7.86934 25.3018 -10.8878 -26.0393 -0.175279 -3.95788 36.1821 6.92905 4.61804 -15.1041 0.0 0.0 0.0 0.0 0.0 
1742.04 725.505 -430.022 163.487 -65.5895 165.242 -2.61625 -0.0413535 -0.821996 -2.61587 0.0110343 -0.822962 -2.61563 0.220189 -0.793037 -2.6165 0.0921851 -0.817857 -10.3595 7.14397 2.42345 -10.3951 11.8477 4.17945 -0.0 0.0 -0.0 -0.285434 14.1263 1.20095 8.15665 -11.1434 76.4724 1.78354 -41.4573 0.675011 2.00248 0.0662385 -0.247172 0.66259 13.9756 9.91664 -0.0 0.0 -0.0 3.55554 16.2789 -5.66096 -10.0554 15.5747 -68.062 0.60106 16.5809 -0.0875836 53.262 1.21211 6.45288 0.65134 2.49879 -3.3194 0.0 0.0 0.0 -5.00782 40.0885 -8.11023 2.33754 -0.103293 -0.343788 13.6071 14.0753 -1.92085 0.974532 -0.0 -0.0 -0.0 0.0 -0.0 7.86833 25.1392 -11.091 -25.9064 -0.178969 -3.93782 36.5482 7.24847 4.65828 -15.5117 0.0 0.0 0.0 0.0 0.0 
1742.0 721.902 -428.19 163.89 -65.7514 165.588 -2.58027 -0.0582855 -0.862856 -2.57985 -0.00326366 -0.864816 -2.57936 0.216488 -0.83729 -2.58033 0.0815424 -0.86097 -10.2546 6.98699 4.18867 -10.2454 10.3562 5.83803 -0.0 0.0 -0.0 0.0356042 13.8917 1.69528 7.49775 -13.9245 75.0024 1.8028 -41.7626 0.687795 3.51437 0.110499 -0.435217 1.4128 11.3904 13.8219 -0.0 0.0 -0.0 3.8781 17.3664 -6.25408 -11.0516 15.5514 -68.0937 0.611868 16.8623 -0.0906933 54.3579 1.29816 6.56381 0.469924 2.02054 -2.29962 0.0 0.0 0.0 -4.79885 40.0616 -8.07786 2.5327 -0.112552 -0.3723 16.2184 14.9672 -2.27089 0.641908 -0.0 -0.0 -0.0 0.0 -0.0 7.83455 25.8389 -11.4457 -24.8933 -0.205556 -3.78462 36.7877 7.59899 4.68719 -16.6613 0.0 0.0 0.0 0.0 0.0 
1744.85 719.397 -425.438 164.601 -65.8129 166.205 -2.55071 -0.0922575 -0.830422 -2.55033 -0.0392305 -0.834609 -2.54932 0.173596 -0.817299 -2.55025 0.0423449 -0.834457 -9.63824 7.30382 4.88745 -9.60608 10.4027 6.54537 -0.0 0.0 -0.0 0.504577 14.0176 2.4722 6.58184 -14.2174 73.216 1.89786 -43.2285 0.752021 4.75668 0.143141 -0.59055 2.01209 8.5019 16.792 -0.0 0.0 -0.0 2.95257 18.6835 -4.14974 -8.86996 15.0177 -70.4962 0.550417 15.2517 -0.0736947 55.8758 1.42082 6.71472 0.236764 1.21209 -1.07413 0.0 0.0 0.0 -5.39534 39.9656 -7.90844 2.90906 -0.13068 -0.427195 18.8018 15.2132 -2.60628 0.137796 -0.0 -0.0 -0.0 0.0 -0.0 8.09181 28.4113 -12.1295 -24.3669 -0.218299 -3.70484 37.9105 7.7588 4.79384 -17.3621 0.0 0.0 0.0 0.0 0.0 
1743.86 717.336 -423.427 164.412 -66.8243 165.824 -2.55056 -0.140927 -0.922669 -2.55009 -0.0819321 -0.929766 -2.54819 0.156388 -0.920175 -2.54937 0.00910725 -0.933325 -9.33911 7.30272 5.95639 -9.26838 9.62511 7.56341 -0.0 0.0 -0.0 0.804362 13.381 2.89887 6.37333 -16.0629 72.117 1.90114 -43.2778 0.754265 5.36982 0.158007 -0.667462 2.52747 5.94774 19.4164 -0.0 0.0 -0.0 3.06818 19.3912 -4.33013 -8.17798 14.7941 -71.2123 0.473093 13.1898 -0.0546964 56.8453 1.50126 6.8094 -0.0902929 1.16888 1.09807 0.0 0.0 0.0 -4.61083 39.7758 -8.27135 2.9832 -0.134294 -0.437995 20.4018 14.9982 -2.80701 -0.0485071 0.0 0.0 -0.0 0.0 -0.0 8.10082 27.8884 -12.0313 -23.9668 -0.227496 -3.64412 39.1103 7.08602 4.88878 -18.0098 0.0 0.0 0.0 0.0 0.0 
1744.52 715.849 -421.354 163.915 -68.033 165.426 -2.5938 -0.238771 -1.07097 -2.59318 -0.170143 -1.08399 -2.58912 0.110916 -1.09164 -2.59078 -0.0628696 -1.09546 -8.47919 7.66614 6.44635 -8.38647 9.83149 8.06869 -0.0 0.0 -0.0 0.223782 13.6817 1.97875 6.95376 -18.2837 73.2755 1.92282 -43.6021 0.769175 5.91516 0.170537 -0.735998 2.9986 4.17626 22.0923 -0.0 0.0 -0.0 3.0298 20.5755 -4.13281 -7.76416 14.1366 -71.4994 0.422236 11.8141 -0.0436864 58.1241 1.60979 6.93221 -0.406695 0.724369 3.02763 0.0 0.0 0.0 -4.18712 39.5999 -8.35478 3.82522 -0.176318 -0.560328 20.3519 14.7177 -2.79891 -0.660517 0.0 0.0 -0.0 0.0 -0.0 8.2362 28.8769 -12.3404 -23.5547 -0.236523 -3.58152 39.6197 6.61548 4.92497 -18.4306 0.0 0.0 0.0 0.0 0.0 
1745.94 715.491 -420.085 163.447 -68.9892 165.006 -2.58935 -0.250972 -1.18692 -2.58858 -0.174942 -1.20048 -2.58389 0.13577 -1.20554 -2.58592 -0.0563113 -1.21185 -8.16424 7.63815 7.11433 -8.04294 9.25421 8.69965 -0.0 0.0 -0.0 0.520094 13.1502 2.40838 6.22084 -19.8507 72.3251 1.96811 -44.2682 0.800596 6.29632 0.178907 -0.783969 3.33086 2.95911 24.034 -0.0 0.0 -0.0 2.97382 21.6432 -3.90694 -7.00415 13.9368 -72.4922 0.383958 10.7693 -0.0361911 58.8564 1.67318 7.00144 -0.591364 0.452516 4.14787 0.0 0.0 0.0 -3.82687 39.4658 -8.66227 4.10086 -0.190466 -0.600242 22.1352 14.4486 -3.01771 -0.430221 0.0 0.0 -0.0 0.0 -0.0 8.26389 29.4376 -12.8012 -23.2768 -0.242355 -3.53929 39.5999 6.10733 4.91455 -18.4937 0.0 0.0 0.0 0.0 0.0 
1749.59 716.045 -420.521 163.485 -69.6506 165.048 -2.64979 -0.252524 -1.27526 -2.6489 -0.170871 -1.28875 -2.64388 0.163488 -1.2897 -2.6462 -0.0422305 -1.29934 -8.09705 7.72598 7.59923 -7.95546 9.06251 9.19226 -0.0 0.0 -0.0 0.284986 13.4128 2.04959 6.01147 -21.0146 72.912 1.9879 -44.5547 0.814446 6.57031 0.184727 -0.818485 3.57679 2.05805 25.494 -0.0 0.0 -0.0 2.99151 22.2903 -3.88069 -6.44466 13.7584 -72.88 0.360524 10.1261 -0.0319416 59.4781 1.72769 7.05958 -0.749276 0.207734 5.10037 0.0 0.0 0.0 -3.2819 39.3692 -8.96339 4.08841 -0.189822 -0.59844 22.2455 14.6192 -3.03239 -0.691543 0.0 0.0 -0.0 0.0 -0.0 8.23561 29.9264 -12.8805 -23.1006 -0.245948 -3.51248 39.4111 5.76594 4.89248 -18.6517 0.0 0.0 0.0 0.0 0.0 
1750.51 714.04 -419.993 162.975 -70.2725 164.749 -2.65726 -0.251559 -1.3885 -2.6562 -0.162705 -1.40169 -2.65085 0.20037 -1.3968 -2.65357 -0.0227204 -1.41092 -9.28885 7.77608 8.42087 -9.1165 8.80533 10.0729 -0.0 0.0 -0.0 -0.074866 13.2319 1.43776 5.93978 -22.3212 73.79 2.01237 -44.905 0.831667 6.76448 0.18875 -0.842961 3.76442 1.15759 26.5364 -0.0 0.0 -0.0 3.02007 22.6409 -3.90735 -5.46836 13.6488 -72.1114 0.339963 9.55954 -0.0284267 60.0267 1.77631 7.1104 -0.885437 0.0346113 5.93842 0.0 0.0 0.0 -2.93146 39.2869 -9.42706 4.12181 -0.191548 -0.603272 23.0368 15.4392 -3.13502 -1.15711 0.0 0.0 -0.0 0.0 -0.0 8.01373 30.2293 -13.0098 -22.8842 -0.250247 -3.47955 39.6751 4.41047 4.89498 -18.6439 0.0 0.0 0.0 0.0 0.0 
1752.08 716.808 -419.823 162.477 -70.6261 164.172 -2.77589 -0.210885 -1.44624 -2.77473 -0.11844 -1.45672 -2.77025 0.26023 -1.43818 -2.77314 0.0298554 -1.46122 -9.9889 7.94065 8.96482 -9.79446 8.88107 10.6801 -0.0 0.0 -0.0 -0.135291 13.6123 1.38361 5.9212 -22.0253 74.1494 2.00109 -44.744 0.823715 7.05257 0.194568 -0.879303 3.81801 0.437636 26.6494 -0.0 0.0 -0.0 3.08059 23.1287 -3.98923 -5.0361 13.5734 -71.8776 0.311832 8.78139 -0.0239433 60.339 1.8042 7.13911 -0.950707 -0.241065 6.25536 0.0 0.0 0.0 -2.7522 39.2396 -9.44272 4.04704 -0.187688 -0.592453 22.1197 15.9379 -3.02718 -1.48256 0.0 0.0 -0.0 0.0 -0.0 7.90376 30.5343 -13.1272 -22.7478 -0.252891 -3.45879 38.8919 3.97969 4.82053 -19.1552 0.0 0.0 0.0 0.0 0.0 
1757.72 715.143 -421.191 162.48 -71.1173 164.006 -2.77635 -0.193851 -1.46171 -2.77516 -0.100456 -1.47108 -2.77111 0.28133 -1.44743 -2.77403 0.0492316 -1.47368 -9.49359 7.98464 8.84943 -9.3026 8.94258 10.5503 -0.0 0.0 -0.0 -0.469784 14.3406 0.928856 5.44834 -23.4004 74.8545 2.01293 -44.913 0.832062 6.45034 0.182199 -0.803368 3.96995 -1.32677 27.0659 -0.0 0.0 -0.0 3.2503 23.3874 -4.33051 -4.89044 13.2081 -71.4842 0.368475 10.3446 -0.0333545 61.1426 1.8767 7.21231 -1.076 -0.65379 6.91406 0.0 0.0 0.0 -2.66173 39.2492 -9.46394 3.63823 -0.16683 -0.533213 22.3711 17.1972 -3.06944 -2.20816 0.0 0.0 -0.0 0.0 -0.0 7.63687 31.7268 -13.0422 -21.9956 -0.266594 -3.34417 37.9539 2.58531 4.71958 -19.8353 0.0 0.0 0.0 0.0 0.0 
